<?xml version="1.0" ?><svg enable-background="new 0 0 32 32" version="1.1" viewBox="0 0 32 32" xml:space="preserve" xmlns="http://www.w3.org/2000/svg" xmlns:xlink="http://www.w3.org/1999/xlink"><g id="style_2_copy_6"><g><g><path d="M16,31.5C7.453,31.5,0.5,24.547,0.5,16S7.453,0.5,16,0.5S31.5,7.453,31.5,16S24.547,31.5,16,31.5z" fill="#FFFFFF"/></g><g><g><path d="M16,1c8.271,0,15,6.729,15,15s-6.729,15-15,15S1,24.271,1,16S7.729,1,16,1 M16,0C7.163,0,0,7.163,0,16      s7.163,16,16,16s16-7.163,16-16S24.837,0,16,0L16,0z" fill="#999999"/></g></g><g><g><path d="M16,3.007c7.165,0,12.993,5.829,12.993,12.993S23.164,28.993,16,28.993S3.007,23.164,3.007,16      S8.835,3.007,16,3.007" fill="#DBDBDB"/></g></g><g><path d="M16,3.006C8.836,3.006,3.006,8.836,3.006,16c0,3.605,1.478,6.871,3.858,9.227L25.227,6.864     C22.871,4.485,19.605,3.006,16,3.006z" fill="#E8E8E8"/></g></g><g><path d="M24.137,15.048c0.099,0.529,0.153,1.084,0.153,1.662c0,4.522-3.028,7.739-7.6,7.739    c-4.374,0-7.917-3.543-7.917-7.917s3.543-7.917,7.917-7.917c2.138,0,3.924,0.787,5.294,2.063l-2.232,2.232v-0.005    c-0.831-0.792-1.885-1.197-3.062-1.197c-2.612,0-4.735,2.207-4.735,4.819c0,2.612,2.123,4.824,4.735,4.824    c2.37,0,3.983-1.356,4.315-3.216H16.69v-3.088L24.137,15.048L24.137,15.048z" fill="#F2F2F2"/></g><g><path d="M23.605,14.516c0.099,0.529,0.153,1.084,0.153,1.662c0,4.522-3.028,7.739-7.6,7.739c-4.374,0-7.917-3.543-7.917-7.917    s3.543-7.917,7.917-7.917c2.138,0,3.924,0.787,5.294,2.063l-2.232,2.232v-0.005c-0.831-0.792-1.885-1.197-3.062-1.197    c-2.612,0-4.735,2.207-4.735,4.819c0,2.612,2.123,4.824,4.735,4.824c2.37,0,3.983-1.356,4.315-3.216h-4.315v-3.088L23.605,14.516    L23.605,14.516z"/></g></g></svg>