<svg xmlns:mydata="http://www.w3.org/2000/svg" mydata:contrastcolor="f0e9f1" mydata:template="Default" mydata:presentation="2.5" mydata:layouttype="undefined" mydata:specialfontid="undefined" mydata:id1="352" mydata:id2="001" mydata:companyname="ImovPy" mydata:companytagline="by Galli" version="1.1" xmlns="http://www.w3.org/2000/svg" xmlns:xlink="http://www.w3.org/1999/xlink" viewBox="0 35 550 400"><g fill="none" fill-rule="none" stroke="none" stroke-width="1" stroke-linecap="butt" stroke-linejoin="miter" stroke-miterlimit="10" stroke-dasharray="" stroke-dashoffset="0" font-family="none" font-weight="none" font-size="none" text-anchor="none" style="mix-blend-mode: normal"><g data-paper-data="{&quot;isGlobalGroup&quot;:true,&quot;bounds&quot;:{&quot;x&quot;:191.51428519524615,&quot;y&quot;:114.99999999999999,&quot;width&quot;:166.97142960950777,&quot;height&quot;:240}}"><g data-paper-data="{&quot;isSecondaryText&quot;:true}" fill="#c800a1" fill-rule="nonzero"><path d="M204.63305,354.7524c2.60937,0 5.02827,-1.67609 5.02827,-4.57115c0,-1.37135 -0.64758,-2.59032 -1.92369,-3.46646c0.68567,-0.62853 1.00946,-1.40944 1.00946,-2.39986c0,-2.64746 -1.8856,-3.75216 -4.51401,-3.75216h-4.55211v14.18962zM202.63317,352.08589v-3.65692h2.09511c1.21897,0 1.90465,0.70472 1.90465,1.84751c0,1.1047 -0.68567,1.80942 -1.90465,1.80942zM202.63317,345.85769v-2.62841h1.48562c0.819,0 1.5999,0.22856 1.5999,1.31421c0,0.59044 -0.17142,1.31421 -1.5999,1.31421z" data-paper-data="{&quot;glyphName&quot;:&quot;B&quot;,&quot;glyphIndex&quot;:0,&quot;firstGlyphOfWord&quot;:true,&quot;word&quot;:1}"></path><path d="M225.74108,347.53378l-4.15213,-6.97101h-3.39027l6.01869,9.88512v4.3045h2.9522v-4.57115l5.80917,-9.61847h-3.10458z" data-paper-data="{&quot;glyphName&quot;:&quot;Y&quot;,&quot;glyphIndex&quot;:1,&quot;lastGlyphOfWord&quot;:true,&quot;word&quot;:1}"></path><path d="M274.73449,347.00048h-7.27575v2.62841h3.84739c-0.62853,1.65704 -2.20939,2.53318 -3.92357,2.53318c-2.38081,0 -4.26641,-1.99988 -4.26641,-4.49497c0,-2.51413 1.8856,-4.53306 4.26641,-4.53306c1.67609,0 3.14267,0.95232 3.88548,2.34272l2.36176,-1.71418c-1.27611,-2.07607 -3.61883,-3.44741 -6.26629,-3.44741c-4.03785,0 -7.27575,3.29504 -7.27575,7.35194c0,4.0569 3.2379,7.33289 7.2948,7.33289c4.07595,0 7.35194,-3.37123 7.35194,-7.56145z" data-paper-data="{&quot;glyphName&quot;:&quot;G&quot;,&quot;glyphIndex&quot;:2,&quot;firstGlyphOfWord&quot;:true,&quot;word&quot;:2}"></path><path d="M296.06402,354.7524h3.21885l-7.50431,-14.43723l-7.48526,14.43723h3.04744l0.91423,-1.90465h6.87578zM291.66429,345.76246l2.1713,4.41878h-4.3045z" data-paper-data="{&quot;glyphName&quot;:&quot;A&quot;,&quot;glyphIndex&quot;:3,&quot;word&quot;:2}"></path><path d="M310.20403,340.56277v14.18962h8.66615v-2.66651h-5.71394v-11.52312z" data-paper-data="{&quot;glyphName&quot;:&quot;L&quot;,&quot;glyphIndex&quot;:4,&quot;word&quot;:2}"></path><path d="M329.26471,340.56277v14.18962h8.66615v-2.66651h-5.71394v-11.52312z" data-paper-data="{&quot;glyphName&quot;:&quot;L&quot;,&quot;glyphIndex&quot;:5,&quot;word&quot;:2}"></path><path d="M350.31903,340.56277h-2.9522v14.18962h2.9522z" data-paper-data="{&quot;glyphName&quot;:&quot;I&quot;,&quot;glyphIndex&quot;:6,&quot;lastGlyphOfWord&quot;:true,&quot;word&quot;:2}"></path></g><g data-paper-data="{&quot;isPrimaryText&quot;:true}" fill="#671e75" fill-rule="nonzero"><path d="M191.51429,331.70857c0,0.8292 0.60306,1.43226 1.43226,1.43226h2.78914c0.75382,0 1.43226,-0.60306 1.43226,-1.43226v-53.67208c0,-0.8292 -0.67844,-1.43226 -1.43226,-1.43226h-2.78914c-0.8292,0 -1.43226,0.60306 -1.43226,1.43226z" data-paper-data="{&quot;glyphName&quot;:&quot;I&quot;,&quot;glyphIndex&quot;:0,&quot;firstGlyphOfWord&quot;:true,&quot;word&quot;:1}"></path><path d="M220.38564,333.14083c0.75382,0 1.43226,-0.60306 1.43226,-1.43226v-48.01842c0,-0.8292 0.60306,-1.43226 1.35688,-1.43226h4.44755c0.8292,0 1.43226,0.60306 1.43226,1.43226v48.01842c0,0.8292 0.67844,1.43226 1.43226,1.43226h2.78914c0.8292,0 1.43226,-0.60306 1.43226,-1.43226v-50.88294c0,-0.75382 -0.45229,-1.88455 -0.97997,-2.41223l-0.8292,-0.8292c-0.52767,-0.52767 -1.65841,-0.97997 -2.41223,-0.97997h-7.31207c-0.75382,0 -2.03532,0 -2.78914,0h-2.86452c-0.75382,0 -2.03532,0 -2.78914,0h-7.31207c-0.75382,0 -1.80917,0.45229 -2.41223,0.97997l-0.8292,0.8292c-0.52767,0.52767 -0.97997,1.65841 -0.97997,2.41223v50.88294c0,0.8292 0.60306,1.43226 1.43226,1.43226h2.78914c0.8292,0 1.43226,-0.60306 1.43226,-1.43226v-48.01842c0,-0.8292 0.60306,-1.43226 1.43226,-1.43226h4.44755c0.75382,0 1.35688,0.60306 1.35688,1.43226v48.01842c0,0.8292 0.67844,1.43226 1.43226,1.43226z" data-paper-data="{&quot;glyphName&quot;:&quot;M&quot;,&quot;glyphIndex&quot;:1,&quot;word&quot;:1}"></path><path d="M244.96022,276.60423c-0.75382,0 -1.80917,0.45229 -2.41223,0.97997l-0.8292,0.8292c-0.52767,0.52767 -0.97997,1.65841 -0.97997,2.41223v33.7712c0,0.75382 0.45229,1.80917 0.97997,2.33685l0.8292,0.90459c0.60306,0.52767 1.65841,0.97997 2.41223,0.97997h17.41327c0.8292,0 1.88455,-0.45229 2.48761,-0.97997l0.75382,-0.90459c0.60306,-0.52767 1.05535,-1.58302 1.05535,-2.33685v-33.7712c0,-0.75382 -0.45229,-1.88455 -1.05535,-2.41223l-0.75382,-0.8292c-0.60306,-0.52767 -1.65841,-0.97997 -2.48761,-0.97997zM261.01661,311.7323c0,0.8292 -0.60306,1.43226 -1.43226,1.43226h-11.75961c-0.8292,0 -1.43226,-0.60306 -1.43226,-1.43226v-28.11754c0,-0.75382 0.60306,-1.35688 1.43226,-1.35688h11.75961c0.8292,0 1.43226,0.60306 1.43226,1.35688zM240.73882,331.63319c0,0.75382 0.60306,1.43226 1.43226,1.43226h23.06693c0.75382,0 1.35688,-0.67844 1.35688,-1.43226v-2.78914c0,-0.8292 -0.60306,-1.43226 -1.35688,-1.43226h-23.06693c-0.8292,0 -1.43226,0.60306 -1.43226,1.43226z" data-paper-data="{&quot;glyphName&quot;:&quot;special;O.001&quot;,&quot;glyphIndex&quot;:2,&quot;word&quot;:1}"></path><path d="M284.08355,315.9537c-0.15076,0.75382 -0.37691,0.75382 -0.52767,0l-7.23668,-37.9926c-0.15076,-0.75382 -0.90459,-1.35688 -1.73379,-1.35688h-2.9399c-0.75382,0 -1.2815,0.60306 -1.13073,1.35688l10.32735,53.74746c0.15076,0.75382 0.90459,1.35688 1.65841,1.35688h2.71376c0.8292,0 1.58302,-0.60306 1.65841,-1.35688l10.02582,-53.74746c0.15076,-0.75382 -0.37691,-1.35688 -1.13073,-1.35688h-2.9399c-0.75382,0 -1.50764,0.60306 -1.65841,1.35688z" data-paper-data="{&quot;glyphName&quot;:&quot;V&quot;,&quot;glyphIndex&quot;:3,&quot;word&quot;:1}"></path><path d="M325.6191,310.97848c0.52767,-0.60306 0.97997,-1.65841 0.97997,-2.41223v-27.74063c0,-0.75382 -0.45229,-1.88455 -0.97997,-2.41223l-0.8292,-0.8292c-0.52767,-0.52767 -1.65841,-0.97997 -2.41223,-0.97997h-17.41327c-0.75382,0 -1.80917,0.45229 -2.41223,0.97997l-0.8292,0.8292c-0.52767,0.52767 -0.97997,1.65841 -0.97997,2.41223v50.88294c0,0.8292 0.60306,1.43226 1.43226,1.43226h2.78914c0.75382,0 1.43226,-0.60306 1.43226,-1.43226v-17.48866c0,-0.8292 0.60306,-1.43226 1.43226,-1.43226h14.54875c0.75382,0 1.88455,-0.45229 2.41223,-0.97997zM320.94541,305.70173c0,0.75382 -0.60306,1.43226 -1.43226,1.43226h-11.68423c-0.8292,0 -1.43226,-0.67844 -1.43226,-1.43226v-22.01158c0,-0.8292 0.60306,-1.43226 1.43226,-1.43226h11.68423c0.8292,0 1.43226,0.60306 1.43226,1.43226z" data-paper-data="{&quot;glyphName&quot;:&quot;P&quot;,&quot;glyphIndex&quot;:4,&quot;word&quot;:1}"></path><path d="M352.83205,305.55097c0,0.75382 -0.60306,1.43226 -1.43226,1.43226h-11.68423c-0.8292,0 -1.43226,-0.67844 -1.43226,-1.43226v-27.51448c0,-0.8292 -0.67844,-1.43226 -1.43226,-1.43226h-2.78914c-0.8292,0 -1.43226,0.60306 -1.43226,1.43226v30.379c0,0.75382 0.45229,1.80917 0.97997,2.41223l0.8292,0.8292c0.60306,0.52767 1.65841,0.97997 2.41223,0.97997h14.54875c0.8292,0 1.43226,0.60306 1.43226,1.43226v11.98576c0,0.8292 -0.60306,1.43226 -1.43226,1.43226h-11.68423c-0.8292,0 -1.43226,-0.60306 -1.43226,-1.43226v-0.67844c0,-0.8292 -0.67844,-1.43226 -1.43226,-1.43226h-2.78914c-0.8292,0 -1.43226,0.60306 -1.43226,1.43226v3.54296c0,0.75382 0.45229,1.80917 0.97997,2.41223l0.8292,0.8292c0.60306,0.52767 1.65841,0.97997 2.41223,0.97997h17.41327c0.75382,0 1.88455,-0.45229 2.41223,-0.97997l0.8292,-0.8292c0.52767,-0.60306 0.97997,-1.65841 0.97997,-2.41223v-14.85028c0,-0.8292 0,-2.1107 0,-2.86452v-2.78914c0,-0.8292 0,-2.1107 0,-2.86452v-27.51448c0,-0.8292 -0.60306,-1.43226 -1.43226,-1.43226h-2.78914c-0.8292,0 -1.43226,0.60306 -1.43226,1.43226z" data-paper-data="{&quot;glyphName&quot;:&quot;Y&quot;,&quot;glyphIndex&quot;:5,&quot;lastGlyphOfWord&quot;:true,&quot;word&quot;:1}"></path></g><g data-paper-data="{&quot;fillRule&quot;:&quot;nonzero&quot;,&quot;fillRuleOriginal&quot;:&quot;nonzero&quot;,&quot;isIcon&quot;:true,&quot;iconStyle&quot;:&quot;standalone&quot;,&quot;selectedEffects&quot;:{&quot;container&quot;:&quot;&quot;,&quot;transformation&quot;:&quot;&quot;,&quot;pattern&quot;:&quot;&quot;},&quot;bounds&quot;:{&quot;x&quot;:235.82090505384838,&quot;y&quot;:114.99999999999999,&quot;width&quot;:78.35818989230324,&quot;height&quot;:133.15097510893833},&quot;iconType&quot;:&quot;icon&quot;,&quot;rawIconId&quot;:&quot;2fd0a19e-276b-410f-ba45-1cc0b6478abc&quot;,&quot;isDetailed&quot;:false,&quot;suitableAsStandaloneIcon&quot;:true}" fill-rule="evenodd"><g data-paper-data="{&quot;isPathIcon&quot;:true}"><path d="M265.4401,125.015c-0.441,-1.702 -1.33,-3.191 -2.667,-4.467c-1.339,-1.277 -3.147,-1.914 -5.421,-1.914h-2.697v-3.634h42.48399v3.632h-2.697c-2.357,0 -4.253,0.687 -5.692,2.063c-1.039,0.917 -1.858,2.488 -2.457,4.712c-0.439,1.572 -0.659,5.696 -0.659,12.374v52.39199c-1.345,-0.878 -2.688,-1.743 -4.02,-2.597c-2.712,-1.739 -5.275,-3.381 -7.828,-5.132c-1.978,-1.362 -4.301,-2.995 -6.578,-4.806c-0.377,-0.28 -0.741,-0.59 -1.108,-0.892v-38.96499c0,-6.808 -0.221,-11.063 -0.66,-12.766z" fill="#671e75"></path><path d="M314.05109,246.44198c-0.036,-0.158 -0.068,-0.314 -0.103,-0.473c0.088,0.727 0.168,1.454 0.231,2.182c-1.165,-2.945 -2.359,-5.77 -3.722,-8.315c-1.351,-2.553 -2.846,-4.825 -4.466,-6.755c-1.618,-1.935 -3.375,-3.498 -5.213,-4.79c-1.847,-1.275 -3.784,-2.276 -5.786,-3.09c-4.014,-1.609 -8.272,-2.527 -12.641,-3.451c-4.371,-0.914 -8.864,-1.822 -13.389,-3.209c-4.521,-1.384 -9.083,-3.229 -13.485,-5.92c-4.364,-2.658 -8.77,-6.171 -12.465,-11.296c-1.845,-2.554 -3.494,-5.54 -4.748,-8.9c-0.629,-1.675 -1.142,-3.455 -1.541,-5.274c-0.394,-1.824 -0.653,-3.701 -0.802,-5.569c-0.123,-1.878 -0.136,-3.746 -0.021,-5.576c0.127,-1.829 0.345,-3.616 0.691,-5.331c0.331,-1.718 0.775,-3.364 1.295,-4.929c0.537,-1.553 1.131,-3.052 1.872,-4.368c-1.152,6.578 -1.11,13.275 0.25,18.879c0.337,1.399 0.744,2.738 1.244,3.986c0.49,1.254 1.04,2.438 1.66,3.543c1.236,2.215 2.711,4.128 4.328,5.818c1.616,1.692 3.394,3.129 5.24,4.415c0.933,0.626 1.87,1.242 2.84,1.788c0.474,0.285 0.979,0.548 1.467,0.827c0.496,0.257 0.989,0.532 1.49,0.774c3.987,2.023 8.123,3.541 12.371,4.857c4.248,1.323 8.612,2.429 13.064,3.814c4.443,1.396 9.012,3.058 13.46,5.888c2.216,1.426 4.392,3.155 6.399,5.295c2.007,2.141 3.822,4.705 5.335,7.562c0.17,0.328 0.323,0.672 0.486,1.007c-0.182,-0.474 -0.364,-0.946 -0.566,-1.398l-1.023,-2.216c-0.363,-0.711 -0.74,-1.399 -1.102,-2.094c-0.093,-0.171 -0.18,-0.35 -0.278,-0.516l-0.303,-0.486l-0.6,-0.967c-0.385,-0.659 -0.823,-1.25 -1.245,-1.854c-0.212,-0.299 -0.418,-0.606 -0.634,-0.898l-0.678,-0.834l-0.673,-0.831c-0.226,-0.273 -0.472,-0.519 -0.704,-0.784c-0.475,-0.513 -0.923,-1.058 -1.43,-1.517l-0.739,-0.716c-0.244,-0.24 -0.489,-0.481 -0.75,-0.693c-0.519,-0.434 -1.017,-0.897 -1.535,-1.327c-2.079,-1.713 -4.282,-3.211 -6.539,-4.634c-2.261,-1.424 -4.579,-2.758 -6.944,-4.095c-4.72,-2.672 -9.575,-5.392 -14.357,-8.679c-0.598,-0.399 -1.192,-0.838 -1.788,-1.263c-0.593,-0.437 -1.193,-0.836 -1.78,-1.303l-1.766,-1.37c-0.589,-0.455 -1.169,-0.952 -1.75,-1.436c-1.166,-0.953 -2.307,-2.008 -3.447,-3.046c-0.567,-0.529 -1.123,-1.094 -1.684,-1.64c-0.562,-0.547 -1.119,-1.098 -1.661,-1.696l-1.633,-1.759c-0.542,-0.592 -1.071,-1.26 -1.607,-1.887c-1.084,-1.228 -2.089,-2.662 -3.113,-4.026c-1.987,-2.877 -3.857,-6.007 -5.44,-9.518l-0.578,-1.337c-0.189,-0.448 -0.387,-0.882 -0.551,-1.362l-0.509,-1.409c-0.164,-0.476 -0.35,-0.923 -0.489,-1.424l-0.441,-1.466c-0.144,-0.491 -0.301,-0.968 -0.415,-1.482c-0.126,-0.505 -0.245,-1.013 -0.362,-1.52l-0.176,-0.759l-0.142,-0.781c-0.786,-4.135 -1.082,-8.496 -0.756,-12.691l0.137,-1.565c0.059,-0.518 0.133,-1.03 0.2,-1.542l0.104,-0.764l0.133,-0.754c0.092,-0.502 0.173,-1.003 0.283,-1.493c0.418,-1.967 0.948,-3.853 1.578,-5.636c0.624,-1.787 1.355,-3.466 2.161,-5.033c0.82,-1.551 1.695,-3.028 2.699,-4.271c-0.632,1.693 -1.152,3.436 -1.601,5.199c-0.452,1.758 -0.809,3.549 -1.086,5.337c-0.262,1.796 -0.47,3.58 -0.55,5.363c-0.027,0.443 -0.022,0.891 -0.041,1.331l-0.02,0.66l0.007,0.661c0.007,0.441 0.006,0.877 0.019,1.312l0.074,1.3c0.443,6.919 2.532,13.074 5.566,18.194c1.51,2.573 3.227,4.929 5.054,7.132c0.951,1.058 1.864,2.155 2.867,3.137c0.497,0.499 0.968,1.019 1.482,1.501l1.537,1.457c0.505,0.499 1.037,0.944 1.559,1.411c0.525,0.46 1.04,0.937 1.571,1.383c1.075,0.865 2.119,1.796 3.215,2.613c2.157,1.716 4.382,3.294 6.631,4.844c4.506,3.089 9.173,5.93 13.9,9.071c2.361,1.562 4.739,3.24 7.092,5.097c2.349,1.869 4.688,3.905 6.912,6.321c0.554,0.607 1.1,1.245 1.641,1.878c0.274,0.307 0.537,0.65 0.798,0.993l0.784,1.023c0.531,0.659 1.016,1.423 1.514,2.147c0.245,0.371 0.502,0.719 0.732,1.113l0.689,1.184l0.684,1.181c0.217,0.41 0.423,0.834 0.634,1.25c0.417,0.84 0.851,1.648 1.201,2.555l0.551,1.324l0.272,0.66c0.087,0.224 0.164,0.459 0.245,0.687c0.314,0.923 0.649,1.824 0.938,2.755c1.139,3.749 1.868,7.673 2.304,11.587c0.093,0.985 0.193,1.961 0.275,2.937l0.127,2.944c0.015,0.488 0.037,0.975 0.046,1.462l-0.013,1.467c-0.012,0.976 -0.032,1.947 -0.058,2.912z" fill="#671e75"></path><path d="M289.0181,242.60398c-1.339,-1.276 -2.239,-2.764 -2.697,-4.468c-0.459,-1.702 -0.688,-5.955 -0.688,-12.766v-1.099c-1.22,-0.277 -2.44,-0.543 -3.647,-0.799l-0.841,-0.175c-4.125,-0.86 -8.39,-1.749 -12.699,-3.072c-0.8,-0.245 -1.578,-0.502 -2.346,-0.765v5.909c0,6.678 -0.221,10.802 -0.66,12.372c-0.561,2.227 -1.359,3.798 -2.397,4.714c-1.438,1.374 -3.336,2.063 -5.693,2.063h-2.696v3.633h42.48399v-3.633h-2.697c-2.278,0.001 -4.086,-0.638 -5.423,-1.914z" fill="#c800a1"></path></g></g></g></g></svg>
