<?xml version="1.0" ?><svg enable-background="new 0 0 32 32" version="1.1" viewBox="0 0 32 32" xml:space="preserve" xmlns="http://www.w3.org/2000/svg" xmlns:xlink="http://www.w3.org/1999/xlink"><g id="style_2_copy_6"><g><g><path d="M16,31.5C7.453,31.5,0.5,24.547,0.5,16S7.453,0.5,16,0.5S31.5,7.453,31.5,16S24.547,31.5,16,31.5z" fill="#FFFFFF"/></g><g><g><path d="M16,1c8.271,0,15,6.729,15,15s-6.729,15-15,15S1,24.271,1,16S7.729,1,16,1 M16,0C7.163,0,0,7.163,0,16      s7.163,16,16,16s16-7.163,16-16S24.837,0,16,0L16,0z" fill="#999999"/></g></g><g><g><path d="M16,3.007c7.165,0,12.993,5.829,12.993,12.993S23.164,28.993,16,28.993S3.007,23.164,3.007,16      S8.835,3.007,16,3.007" fill="#DBDBDB"/></g></g><g><path d="M16,3.006C8.836,3.006,3.006,8.836,3.006,16c0,3.605,1.478,6.871,3.858,9.227L25.227,6.864     C22.871,4.485,19.605,3.006,16,3.006z" fill="#E8E8E8"/></g></g><g><path d="M16.645,23.935c-0.046,0-0.091-0.001-0.137-0.003h0c-0.029,0.002-0.059,0.003-0.089,0.003    c-1.061,0-1.742-0.481-2.4-0.947c-0.455-0.321-0.884-0.624-1.389-0.709c-0.247-0.041-0.492-0.062-0.729-0.062    c-0.427,0-0.765,0.066-1.011,0.114c-0.15,0.029-0.279,0.054-0.377,0.054c-0.102,0-0.214-0.022-0.262-0.187    c-0.042-0.143-0.072-0.281-0.101-0.415c-0.075-0.344-0.129-0.556-0.273-0.578c-1.682-0.26-2.164-0.614-2.271-0.866    c-0.015-0.036-0.024-0.072-0.026-0.108c-0.005-0.097,0.063-0.182,0.158-0.197c2.586-0.426,3.746-3.069,3.794-3.182    c0.001-0.003,0.003-0.006,0.004-0.009c0.158-0.321,0.189-0.599,0.092-0.827c-0.177-0.418-0.756-0.602-1.14-0.724    c-0.094-0.03-0.183-0.058-0.253-0.085c-0.765-0.302-0.828-0.613-0.798-0.771c0.051-0.269,0.411-0.457,0.703-0.457    c0.08,0,0.15,0.014,0.209,0.042c0.344,0.161,0.654,0.243,0.921,0.243c0.37,0,0.531-0.155,0.551-0.176    c-0.009-0.175-0.021-0.358-0.033-0.546c-0.077-1.223-0.172-2.742,0.214-3.609c1.159-2.6,3.618-2.802,4.344-2.802    c0.019,0,0.318-0.003,0.318-0.003l0.043,0c0.728,0,3.192,0.202,4.352,2.803c0.387,0.868,0.291,2.388,0.214,3.61l-0.003,0.053    c-0.011,0.17-0.021,0.336-0.03,0.494c0.018,0.019,0.167,0.162,0.502,0.175h0c0.255-0.01,0.547-0.091,0.868-0.241    c0.094-0.044,0.199-0.053,0.27-0.053c0.109,0,0.219,0.021,0.31,0.059l0.006,0.002c0.26,0.092,0.43,0.274,0.434,0.464    c0.003,0.179-0.133,0.448-0.804,0.714c-0.07,0.027-0.158,0.056-0.253,0.085c-0.384,0.122-0.962,0.305-1.14,0.724    c-0.097,0.228-0.066,0.506,0.092,0.827c0.001,0.003,0.003,0.006,0.004,0.009c0.048,0.112,1.207,2.755,3.794,3.181    c0.096,0.016,0.164,0.101,0.158,0.198c-0.002,0.036-0.011,0.073-0.026,0.108c-0.107,0.25-0.588,0.604-2.271,0.864    c-0.137,0.021-0.191,0.2-0.273,0.576c-0.03,0.137-0.06,0.271-0.102,0.412c-0.036,0.123-0.112,0.18-0.241,0.18h-0.021    c-0.089,0-0.216-0.016-0.377-0.047c-0.285-0.056-0.604-0.107-1.011-0.107c-0.237,0-0.483,0.021-0.73,0.062    c-0.505,0.084-0.934,0.387-1.387,0.708C18.387,23.454,17.706,23.935,16.645,23.935z" fill="#F2F2F2"/></g><g><path d="M16.113,23.404c-0.046,0-0.091-0.001-0.137-0.003h0c-0.029,0.002-0.059,0.003-0.089,0.003c-1.061,0-1.742-0.481-2.4-0.947    c-0.455-0.321-0.884-0.624-1.389-0.709c-0.247-0.041-0.492-0.062-0.729-0.062c-0.427,0-0.765,0.066-1.011,0.114    c-0.15,0.029-0.279,0.054-0.377,0.054c-0.102,0-0.214-0.022-0.262-0.187c-0.042-0.143-0.072-0.281-0.101-0.415    c-0.075-0.344-0.129-0.556-0.273-0.578c-1.682-0.26-2.164-0.614-2.271-0.866c-0.015-0.036-0.024-0.072-0.026-0.108    c-0.005-0.097,0.063-0.182,0.158-0.197c2.586-0.426,3.746-3.069,3.794-3.182c0.001-0.003,0.003-0.006,0.004-0.009    c0.158-0.321,0.189-0.599,0.092-0.827c-0.177-0.418-0.756-0.602-1.14-0.724c-0.094-0.03-0.183-0.058-0.253-0.085    c-0.765-0.302-0.828-0.613-0.798-0.771c0.051-0.269,0.411-0.457,0.703-0.457c0.08,0,0.15,0.014,0.209,0.042    c0.344,0.161,0.654,0.243,0.921,0.243c0.37,0,0.531-0.155,0.551-0.176c-0.009-0.175-0.021-0.358-0.033-0.546    c-0.077-1.223-0.172-2.742,0.214-3.609c1.159-2.6,3.618-2.802,4.344-2.802c0.019,0,0.318-0.003,0.318-0.003l0.043,0    c0.728,0,3.192,0.202,4.352,2.803c0.387,0.868,0.291,2.388,0.214,3.61l-0.003,0.053c-0.011,0.17-0.021,0.336-0.03,0.494    c0.018,0.019,0.167,0.162,0.502,0.175h0c0.255-0.01,0.547-0.091,0.868-0.241c0.094-0.044,0.199-0.053,0.27-0.053    c0.109,0,0.219,0.021,0.31,0.059l0.006,0.002c0.26,0.092,0.43,0.274,0.434,0.464c0.003,0.179-0.133,0.448-0.804,0.714    c-0.07,0.027-0.158,0.056-0.253,0.085c-0.384,0.122-0.962,0.305-1.14,0.724c-0.097,0.228-0.066,0.506,0.092,0.827    c0.001,0.003,0.003,0.006,0.004,0.009c0.048,0.112,1.207,2.755,3.794,3.181c0.096,0.016,0.164,0.101,0.158,0.198    c-0.002,0.036-0.011,0.073-0.026,0.108c-0.107,0.25-0.588,0.604-2.271,0.864c-0.137,0.021-0.191,0.2-0.273,0.576    c-0.03,0.137-0.06,0.271-0.102,0.412c-0.036,0.123-0.112,0.18-0.241,0.18h-0.021c-0.089,0-0.216-0.016-0.377-0.047    c-0.285-0.056-0.604-0.107-1.011-0.107c-0.237,0-0.483,0.021-0.73,0.062c-0.505,0.084-0.934,0.387-1.387,0.708    C17.855,22.922,17.174,23.404,16.113,23.404z"/></g></g></svg>